<svg id="Laag_1" data-name="Laag 1" xmlns="http://www.w3.org/2000/svg" viewBox="0 0 506.87 426.17"><defs><style>.cls-1{fill:#fff;}</style></defs><title>csharp5</title><path class="cls-1" d="M395.93,376.78c-53.37,81.31-150.14,117.46-240.49,90.43C65.59,440.32,3.34,357.62,3,264.66A213.16,213.16,0,0,1,154.57,59.11c90.35-27.6,186.71,8.1,241.14,89.75-1.87,1.26-3.69,2.65-5.64,3.78-28.77,16.7-57.65,33.22-86.27,50.19-5.19,3.07-8.05,2.61-11.9-1.85-21.7-25.13-49-37.59-82.52-35.77-47.17,2.56-87.61,41.3-91.19,87.35-4,51.41,27.78,96.28,76.06,106.12,37.77,7.7,70.09-3.06,95.88-31.84,5.12-5.71,8.73-6.76,15.68-2.58C335.45,342.06,365.51,359.14,395.93,376.78Zm-50.61,8.58c-12.91-7.47-25.49-14.41-37.69-22-4.85-3-7.92-2.72-12.45.89-28.3,22.49-60.05,33.2-96.66,28.58C132,384.45,81.85,324.67,84.82,256.58c2.94-67.12,59.55-122.86,126.5-124.58,32.1-.82,59.84,10.5,84.73,30.05,2,1.57,5.76,3.44,7.3,2.6,14.11-7.65,27.91-15.88,42-24C279.86,68.52,166.63,62.4,92.4,131.92c-75.8,71-75.5,192.24.63,262.77C167.85,464,280.72,456.82,345.32,385.36Z" transform="translate(-2.98 -49.9)"/><path class="cls-1" d="M347.45,279.26H378.7V247.18H347.46V214H379V181.91h33.15v31.23h32.44V181.85h33.16v31.72h32.08v33.15H478.35v32.42h31.5v33.15h-32v32H445.31V313H412.84v31.1H379.7V312.67H347.45Zm65.17-.52h31.79V247.42H412.62Z" transform="translate(-2.98 -49.9)"/><path class="cls-1" d="M335.7,114.3,247.75,71.13l-99.13,4.8-43.18,30.38L62.27,143.09s-30.38,44.77-27.18,49.57S23.89,231,22.29,235.83s0,56,0,56,8,44.78,12.8,52.77,20.78,41.57,28.78,46.37,33.58,25.59,40,28.78,54.37,27.19,62.36,30.38,57.57,9.6,57.57,9.6l76.75-16,44.77-35.18,12.79-25.58-33.57-25.59-20.79-8L259,368.55l-59.17,17.58-35.17-17.58-33.58-24-24-36.78-6.39-43.17V247l12.79-40,22.38-25.59,41.58-22.38s54.36-11.2,59.16-11.2,49.57,28.79,49.57,28.79l17.59,4.79,64-40Z" transform="translate(-2.98 -49.9)"/></svg>