<?xml version="1.0" encoding="utf-8"?>
<!-- Generator: Adobe Illustrator 23.0.1, SVG Export Plug-In . SVG Version: 6.00 Build 0)  -->
<svg version="1.1" xmlns="http://www.w3.org/2000/svg" xmlns:xlink="http://www.w3.org/1999/xlink" x="0px" y="0px"
	 viewBox="0 0 512 512" style="enable-background:new 0 0 512 512;" xml:space="preserve">
<style type="text/css">
	.st0{display:none;}
	.st1{display:inline;}
	.st2{fill:none;}
	.st3{fill:#FFFFFF;}
</style>
<g id="Laag_3" class="st0">
	<polygon class="st1" points="-20,-14 -29,545 526,540 547,-14 	"/>
</g>
<g id="Laag_1">
	<g>
		<path class="st2" d="M478.04,258.92c0,31.49-0.09,62.99,0.03,94.48c0.07,17.82-7.55,30.96-23.05,39.66
			c-56.61,31.77-113.2,63.59-169.81,95.35c-14.7,8.24-29.55,8.31-44.26,0.07c-56.92-31.91-113.82-63.84-170.67-95.86
			c-14.71-8.29-22.32-20.99-22.32-38.04c0-63.66,0.01-127.31-0.01-190.97c0-17.04,7.47-29.81,22.19-38.11
			c56.84-32.05,113.75-63.97,170.66-95.9c14.7-8.25,29.57-8.34,44.26-0.1c56.78,31.82,113.51,63.71,170.23,95.63
			c15.26,8.59,22.86,21.65,22.79,39.31C477.94,195.94,478.04,227.43,478.04,258.92z M457.58,259.42c0-31.49-0.09-62.99,0.05-94.48
			c0.05-10.16-4.02-17.33-12.99-22.34c-56.08-31.36-112.08-62.85-168.03-94.45c-9.33-5.27-18.02-5.18-27.34,0.09
			c-55.65,31.45-111.36,62.78-167.17,93.94c-9.45,5.28-13.8,12.57-13.77,23.42c0.18,62.32,0.17,124.65,0.01,186.97
			c-0.03,10.63,4.17,17.91,13.45,23.1c55.94,31.27,111.81,62.67,167.61,94.19c9.35,5.28,18.04,5.2,27.35-0.06
			c55.66-31.43,111.37-62.77,167.17-93.94c9.44-5.27,13.84-12.59,13.75-23.45C457.42,321.41,457.58,290.41,457.58,259.42z"/>
		<path class="st2" d="M457.58,259.42c0,30.99-0.16,61.99,0.09,92.98c0.09,10.85-4.32,18.17-13.75,23.45
			c-55.8,31.18-111.51,62.51-167.17,93.94c-9.3,5.25-18,5.34-27.35,0.06c-55.8-31.52-111.66-62.93-167.61-94.19
			c-9.28-5.19-13.48-12.47-13.45-23.1c0.16-62.32,0.17-124.65-0.01-186.97c-0.03-10.85,4.31-18.14,13.77-23.42
			c55.81-31.16,111.52-62.5,167.17-93.94c9.33-5.27,18.01-5.36,27.34-0.09c55.95,31.59,111.95,63.09,168.03,94.45
			c8.97,5.02,13.04,12.18,12.99,22.34C457.49,196.43,457.58,227.92,457.58,259.42z M375.67,330.15
			c-19.02-11.03-37.82-21.71-56.36-32.84c-4.35-2.61-6.6-1.96-9.81,1.62c-16.13,18-36.34,24.73-59.97,19.91
			c-30.19-6.16-50.07-34.22-47.57-66.37c2.24-28.8,27.53-53.02,57.03-54.63c20.93-1.14,38.03,6.66,51.61,22.37
			c2.41,2.79,4.2,3.08,7.44,1.15c17.89-10.61,35.96-20.94,53.95-31.38c1.22-0.71,2.36-1.58,3.53-2.37
			c-34.04-51.06-94.3-73.39-150.8-56.12c-56.82,17.36-95.02,69.16-94.8,128.55c0.22,58.14,39.15,109.86,95.35,126.67
			C281.77,403.61,342.29,381,375.67,330.15z M345.35,269.16c0,7.26,0,13.81,0,20.89c6.81,0,13.22,0,20.17,0c0,6.94,0,13.36,0,19.64
			c7.13,0,13.67,0,20.72,0c0-6.85,0-13.26,0-19.45c6.94,0,13.35,0,20.31,0c0,6.81,0,13.21,0,19.6c7,0,13.43,0,20.38,0
			c0-6.68,0-13.09,0-20.04c6.92,0,13.33,0,19.98,0c0-7.1,0-13.64,0-20.73c-6.73,0-13.14,0-19.71,0c0-6.95,0-13.34,0-20.28
			c6.68,0,13.09,0,19.68,0c0-7.09,0-13.63,0-20.73c-6.75,0-13.15,0-20.06,0c0-6.95,0-13.36,0-19.84c-7.07,0-13.61,0-20.74,0
			c0,6.77,0,13.17,0,19.57c-6.99,0-13.39,0-20.29,0c0-6.75,0-13.16,0-19.53c-7.06,0-13.6,0-20.73,0c0,6.8,0,13.2,0,20.1
			c-7.02,0-13.43,0-19.72,0c0,7.1,0,13.66,0,20.73c6.82,0,13.23,0,19.54,0c0,6.93,0,13.32,0,20.06
			C358.21,269.16,351.93,269.16,345.35,269.16z"/>
		<path class="st3" d="M375.67,330.15c-33.38,50.85-93.89,73.46-150.4,56.55c-56.2-16.81-95.13-68.53-95.35-126.67
			c-0.22-59.39,37.98-111.19,94.8-128.55c56.51-17.26,116.76,5.06,150.8,56.12c-1.17,0.79-2.3,1.66-3.53,2.37
			c-17.99,10.44-36.05,20.77-53.95,31.38c-3.25,1.92-5.04,1.63-7.44-1.15c-13.57-15.72-30.68-23.51-51.61-22.37
			c-29.5,1.6-54.79,25.83-57.03,54.63c-2.5,32.15,17.37,60.21,47.57,66.37c23.62,4.82,43.84-1.91,59.97-19.91
			c3.2-3.57,5.45-4.23,9.81-1.62C337.84,308.44,356.64,319.12,375.67,330.15z M344.02,335.52c-8.07-4.67-15.94-9.01-23.57-13.74
			c-3.04-1.88-4.95-1.7-7.79,0.56c-17.69,14.07-37.55,20.76-60.45,17.87c-41.59-5.25-72.97-42.64-71.11-85.23
			c1.83-41.97,37.24-76.83,79.11-77.91c20.07-0.51,37.42,6.56,52.98,18.79c1.25,0.98,3.6,2.15,4.57,1.63
			c8.82-4.79,17.46-9.93,26.25-15.04c-40.95-45.08-111.76-48.91-158.18-5.43c-47.4,44.39-47.22,120.23,0.39,164.33
			C233.03,384.7,303.62,380.21,344.02,335.52z"/>
		<path class="st3" d="M345.35,269.16c6.58,0,12.86,0,19.55,0c0-6.74,0-13.13,0-20.06c-6.3,0-12.72,0-19.54,0
			c0-7.07,0-13.63,0-20.73c6.29,0,12.7,0,19.72,0c0-6.9,0-13.29,0-20.1c7.13,0,13.67,0,20.73,0c0,6.37,0,12.78,0,19.53
			c6.9,0,13.29,0,20.29,0c0-6.4,0-12.8,0-19.57c7.13,0,13.67,0,20.74,0c0,6.47,0,12.88,0,19.84c6.91,0,13.31,0,20.06,0
			c0,7.1,0,13.64,0,20.73c-6.59,0-13,0-19.68,0c0,6.93,0,13.33,0,20.28c6.57,0,12.98,0,19.71,0c0,7.09,0,13.63,0,20.73
			c-6.66,0-13.07,0-19.98,0c0,6.94,0,13.35,0,20.04c-6.95,0-13.38,0-20.38,0c0-6.4,0-12.8,0-19.6c-6.96,0-13.37,0-20.31,0
			c0,6.19,0,12.6,0,19.45c-7.05,0-13.59,0-20.72,0c0-6.29,0-12.7,0-19.64c-6.95,0-13.36,0-20.17,0
			C345.35,282.98,345.35,276.42,345.35,269.16z M386.11,268.84c6.88,0,13.26,0,19.88,0c0-6.66,0-13.03,0-19.59
			c-6.76,0-13.25,0-19.88,0C386.11,255.88,386.11,262.14,386.11,268.84z"/>
		<path class="st2" d="M386.11,268.84c0-6.7,0-12.95,0-19.59c6.63,0,13.12,0,19.88,0c0,6.56,0,12.93,0,19.59
			C399.37,268.84,392.99,268.84,386.11,268.84z"/>
	</g>
	<path d="M276.26,147.3"/>
	<path class="st3" d="M338,166l-55-27l-62,3l-27,19l-27,23c0,0-19,28-17,31s-7,24-8,27s0,35,0,35s5,28,8,33s13,26,18,29s21,16,25,18
		s34,17,39,19s36,6,36,6l48-10l28-22l8-16l-21-16l-13-5l-28,12l-37,11l-22-11l-21-15l-15-23l-4-27v-11l8-25l14-16l26-14
		c0,0,34-7,37-7s31,18,31,18l11,3l40-25L338,166z"/>
	<path class="st3" d="M-148,100"/>
</g>
<g id="Laag_2">
</g>
</svg>
