<svg id="Laag_1" data-name="Laag 1" xmlns="http://www.w3.org/2000/svg" viewBox="0 0 430.12 471.26"><defs><style>.cls-1{fill:#fff;}.cls-2{fill:none;}</style></defs><title>csharp2</title><path class="cls-1" d="M478,258.92c0,31.5-.09,63,0,94.49.07,17.82-7.55,30.95-23.05,39.65q-84.91,47.67-169.81,95.35c-14.7,8.25-29.55,8.32-44.26.07q-85.36-47.87-170.67-95.86c-14.71-8.29-22.31-21-22.32-38q0-95.47,0-191c0-17,7.46-29.82,22.18-38.11Q155.4,77.43,240.8,29.6c14.7-8.25,29.57-8.33,44.26-.1q85.17,47.73,170.23,95.63c15.26,8.59,22.86,21.65,22.79,39.31C477.94,195.94,478,227.43,478,258.92Zm-20.46.5c0-31.5-.09-63,.05-94.49.05-10.16-4-17.32-13-22.34q-84.11-47-168-94.45c-9.33-5.27-18-5.18-27.34.09Q165.8,95.39,82.1,142.17c-9.45,5.28-13.8,12.57-13.77,23.42q.27,93.49,0,187c0,10.63,4.17,17.91,13.45,23.1q83.91,46.89,167.61,94.19c9.34,5.28,18,5.2,27.34-.06q83.49-47.15,167.18-93.94c9.43-5.27,13.84-12.6,13.75-23.45C457.42,321.41,457.58,290.41,457.58,259.42Z" transform="translate(-47.96 -23.37)"/><path class="cls-1" d="M457.58,259.42c0,31-.16,62,.09,93,.09,10.85-4.32,18.18-13.75,23.45q-83.7,46.75-167.18,93.94c-9.3,5.26-18,5.34-27.34.06q-83.7-47.28-167.61-94.19c-9.28-5.19-13.48-12.47-13.45-23.1q.24-93.48,0-187c0-10.85,4.32-18.14,13.77-23.42q83.72-46.74,167.17-93.94c9.32-5.27,18-5.36,27.34-.09q83.92,47.39,168,94.45c9,5,13,12.18,13,22.34C457.49,196.43,457.58,227.92,457.58,259.42Zm-81.91,70.73c-19-11-37.83-21.71-56.36-32.85-4.35-2.61-6.6-1.95-9.81,1.62-16.13,18-36.34,24.73-60,19.91-30.2-6.15-50.07-34.22-47.57-66.37,2.24-28.8,27.53-53,57-54.62,20.93-1.14,38,6.65,51.61,22.37,2.41,2.79,4.2,3.08,7.44,1.15C336,210.75,354,200.42,372,190c1.23-.71,2.36-1.58,3.53-2.37-34-51.06-94.3-73.39-150.8-56.13A133.32,133.32,0,0,0,129.92,260c.22,58.14,39.15,109.86,95.35,126.67C281.77,403.61,342.29,381,375.67,330.15Zm-30.32-61v20.89h20.17V309.7h20.72V290.25h20.31v19.6h20.38v-20h20V269.09H427.21V248.81h19.68V228.08H426.83V208.24H406.09v19.57H385.8V208.28H365.07v20.09H345.36V249.1H364.9v20.06Z" transform="translate(-47.96 -23.37)"/><path class="cls-1" d="M375.67,330.15c-33.38,50.85-93.9,73.46-150.4,56.55-56.2-16.81-95.13-68.53-95.35-126.67a133.32,133.32,0,0,1,94.81-128.55c56.5-17.26,116.76,5.07,150.8,56.13-1.17.79-2.3,1.66-3.53,2.37-18,10.44-36.05,20.77-53.95,31.38-3.24,1.93-5,1.64-7.44-1.15C297,204.49,279.93,196.7,259,197.84c-29.5,1.6-54.79,25.82-57,54.62-2.5,32.15,17.37,60.22,47.57,66.37,23.62,4.82,43.83-1.91,60-19.91,3.21-3.57,5.46-4.23,9.81-1.62C337.84,308.44,356.64,319.12,375.67,330.15ZM344,335.52c-8.07-4.67-15.94-9-23.57-13.75-3-1.88-4.95-1.69-7.79.56-17.7,14.07-37.55,20.76-60.45,17.87-41.59-5.25-73-42.64-71.11-85.22,1.84-42,37.25-76.84,79.12-77.91,20.07-.52,37.42,6.56,53,18.79,1.25,1,3.6,2.15,4.57,1.63,8.83-4.79,17.46-9.94,26.25-15-40.94-45.08-111.75-48.91-158.18-5.43-47.4,44.39-47.21,120.22.4,164.33C233,384.7,303.62,380.21,344,335.52Z" transform="translate(-47.96 -23.37)"/><path class="cls-2" d="M345.35,269.16H364.9V249.1H345.36V228.37h19.71V208.28H385.8v19.53h20.29V208.24h20.74v19.84h20.06v20.73H427.21v20.28h19.71v20.73h-20v20H406.55v-19.6H386.24V309.7H365.52V290.05H345.35Zm40.76-.32H406V249.25H386.11Z" transform="translate(-47.96 -23.37)"/><path class="cls-1" d="M386.11,268.84V249.25H406v19.59Z" transform="translate(-47.96 -23.37)"/></svg>