<svg id="Laag_1" data-name="Laag 1" xmlns="http://www.w3.org/2000/svg" viewBox="0 0 508.98 440.12"><defs><style>.cls-1{fill:#a359c0;}</style></defs><title>titleM</title><path class="cls-1" d="M283,424l36.27-65.24c9.39,3.47,20,9.62,31.23,11.13,39.94,5.38,66.6-14.08,72.68-57.3a279.68,279.68,0,0,0-1.1-82.56c-6.66-41.18-31.17-60.88-64.84-58.81-33,2-57.89,29.3-60.66,68.64-2,28.15-.44,56.58-3.14,84.63-6.29,65.54-56.4,111.87-122.09,115.09-29.48,1.44-58.75,1.1-86.76-9.76-39.13-15.19-62.16-45.18-72.68-84.4C-.81,298-1.13,249.74,10.47,201.92c14.33-59.07,52.79-93.26,113-99.76,29.76-3.21,59.69-2.6,88.43,8,5.56,2,10.85,4.81,15.15,6.74l-34.14,66c-13.66-3.72-28.37-10.38-43.4-11.23-26-1.48-46.3,11.2-55.83,35.81-16,41.28-16.37,83.65-1,125.13,10.47,28.24,30.65,39.31,62,38,24.93-1.05,45.13-16.13,52.92-42.18,3.91-13.1,4.85-27.21,6.14-40.95,2.75-29.08,1.6-59,7.9-87.18,12.15-54.4,47.14-87.78,103.35-96.44,37.15-5.73,73.93-5,109,10.41,37.84,16.66,58.93,47.61,68.43,86.29a291,291,0,0,1-.09,140.67c-14.1,56.93-53.35,91.59-111.73,97.6C353.74,442.58,316.58,442.22,283,424Z" transform="translate(-2.06 -0.59)"/><ellipse class="cls-1" cx="306.45" cy="43.26" rx="36.05" ry="43.26"/><ellipse class="cls-1" cx="414.6" cy="43.26" rx="36.05" ry="43.26"/></svg>